<?xml version="1.0" encoding="UTF-8" standalone="no"?>
<!DOCTYPE svg PUBLIC "-//W3C//DTD SVG 1.1//EN"
 "http://www.w3.org/Graphics/SVG/1.1/DTD/svg11.dtd">
<!-- Generated by graphviz version 9.0.0 (20230911.1827)
 -->
<!-- Title: nfa Pages: 1 -->
<svg width="503pt" height="278pt"
 viewBox="0.00 0.00 503.23 278.01" xmlns="http://www.w3.org/2000/svg" xmlns:xlink="http://www.w3.org/1999/xlink">
<g id="graph0" class="graph" transform="scale(1 1) rotate(0) translate(4 274.01)">
<title>nfa</title>
<polygon fill="white" stroke="none" points="-4,4 -4,-274.01 499.23,-274.01 499.23,4 -4,4"/>
<!-- regex -->
<g id="node1" class="node">
<title>regex</title>
<path fill="none" stroke="black" d="M85.2,-120.23C85.2,-120.23 12,-120.23 12,-120.23 6,-120.23 0,-114.23 0,-108.23 0,-108.23 0,-35.03 0,-35.03 0,-29.03 6,-23.03 12,-23.03 12,-23.03 85.2,-23.03 85.2,-23.03 91.2,-23.03 97.2,-29.03 97.2,-35.03 97.2,-35.03 97.2,-108.23 97.2,-108.23 97.2,-114.23 91.2,-120.23 85.2,-120.23"/>
<text text-anchor="start" x="3.6" y="-62.33" font-family="Times New Roman,serif" font-size="24.00">(a|b)*|ca*</text>
</g>
<!-- * -->
<!-- 0 -->
<g id="node3" class="node">
<title>0</title>
<ellipse fill="none" stroke="black" cx="156.83" cy="-149.63" rx="18.63" ry="18.63"/>
<ellipse fill="none" stroke="black" cx="156.83" cy="-149.63" rx="22.63" ry="22.63"/>
<text text-anchor="start" x="150.83" y="-145.2" font-family="Times New Roman,serif" font-size="14.00">q</text>
<text text-anchor="start" x="158.33" y="-145.2" font-family="Times New Roman,serif" baseline-shift="sub" font-size="11.00">0</text>
</g>
<!-- *&#45;&gt;0 -->
<g id="edge15" class="edge">
<title>*&#45;&gt;0</title>
<path fill="none" stroke="black" d="M53.63,-149.63C64.82,-149.63 97.09,-149.63 122.41,-149.63"/>
<polygon fill="black" stroke="black" points="122.28,-153.13 132.28,-149.63 122.28,-146.13 122.28,-153.13"/>
</g>
<!-- 2 -->
<g id="node5" class="node">
<title>2</title>
<ellipse fill="none" stroke="black" cx="259.84" cy="-213.63" rx="18.63" ry="18.63"/>
<ellipse fill="none" stroke="black" cx="259.84" cy="-213.63" rx="22.63" ry="22.63"/>
<text text-anchor="start" x="253.84" y="-209.2" font-family="Times New Roman,serif" font-size="14.00">q</text>
<text text-anchor="start" x="261.34" y="-209.2" font-family="Times New Roman,serif" baseline-shift="sub" font-size="11.00">2</text>
</g>
<!-- 0&#45;&gt;2 -->
<g id="edge12" class="edge">
<title>0&#45;&gt;2</title>
<path fill="none" stroke="black" d="M176.36,-161.37C191.5,-170.96 213.15,-184.68 230.47,-195.66"/>
<polygon fill="black" stroke="black" points="228.49,-198.54 238.81,-200.94 232.23,-192.63 228.49,-198.54"/>
<text text-anchor="middle" x="208.33" y="-190.08" font-family="Times New Roman,serif" font-size="14.00"> &#160;a &#160;</text>
</g>
<!-- 3 -->
<g id="node6" class="node">
<title>3</title>
<ellipse fill="none" stroke="black" cx="259.84" cy="-90.63" rx="18.63" ry="18.63"/>
<ellipse fill="none" stroke="black" cx="259.84" cy="-90.63" rx="22.63" ry="22.63"/>
<text text-anchor="start" x="253.84" y="-86.2" font-family="Times New Roman,serif" font-size="14.00">q</text>
<text text-anchor="start" x="261.34" y="-86.2" font-family="Times New Roman,serif" baseline-shift="sub" font-size="11.00">3</text>
</g>
<!-- 0&#45;&gt;3 -->
<g id="edge6" class="edge">
<title>0&#45;&gt;3</title>
<path fill="none" stroke="black" d="M175.06,-135.52C181.83,-130.29 189.8,-124.51 197.46,-119.88 207.1,-114.04 218.09,-108.49 228.07,-103.83"/>
<polygon fill="black" stroke="black" points="229.37,-107.08 237.03,-99.76 226.48,-100.71 229.37,-107.08"/>
<text text-anchor="middle" x="208.33" y="-123.08" font-family="Times New Roman,serif" font-size="14.00"> &#160;c &#160;</text>
</g>
<!-- 4 -->
<g id="node7" class="node">
<title>4</title>
<ellipse fill="none" stroke="black" cx="363.6" cy="-170.63" rx="18.63" ry="18.63"/>
<ellipse fill="none" stroke="black" cx="363.6" cy="-170.63" rx="22.63" ry="22.63"/>
<text text-anchor="start" x="357.6" y="-166.2" font-family="Times New Roman,serif" font-size="14.00">q</text>
<text text-anchor="start" x="365.1" y="-166.2" font-family="Times New Roman,serif" baseline-shift="sub" font-size="11.00">4</text>
</g>
<!-- 0&#45;&gt;4 -->
<g id="edge1" class="edge">
<title>0&#45;&gt;4</title>
<path fill="none" stroke="black" d="M179.74,-151.88C215.69,-155.56 287.39,-162.92 329.54,-167.24"/>
<polygon fill="black" stroke="black" points="329.03,-170.7 339.33,-168.24 329.74,-163.74 329.03,-170.7"/>
<text text-anchor="middle" x="259.84" y="-165.08" font-family="Times New Roman,serif" font-size="14.00"> &#160;b &#160;</text>
</g>
<!-- 1 -->
<g id="node4" class="node">
<title>1</title>
<ellipse fill="none" stroke="black" cx="473.85" cy="-142.63" rx="18.63" ry="18.63"/>
<text text-anchor="start" x="467.85" y="-138.2" font-family="Times New Roman,serif" font-size="14.00">q</text>
<text text-anchor="start" x="475.35" y="-138.2" font-family="Times New Roman,serif" baseline-shift="sub" font-size="11.00">1</text>
</g>
<!-- 1&#45;&gt;1 -->
<g id="edge2" class="edge">
<title>1&#45;&gt;1</title>
<path fill="none" stroke="black" d="M464.6,-159.2C462.36,-169.48 465.45,-179.26 473.85,-179.26 478.98,-179.26 482.12,-175.63 483.29,-170.47"/>
<polygon fill="black" stroke="black" points="486.8,-170.66 483.14,-160.72 479.8,-170.77 486.8,-170.66"/>
<text text-anchor="middle" x="473.85" y="-181.71" font-family="Times New Roman,serif" font-size="14.00"> &#160;a,b,c &#160;</text>
</g>
<!-- 2&#45;&gt;1 -->
<g id="edge7" class="edge">
<title>2&#45;&gt;1</title>
<path fill="none" stroke="black" d="M280.34,-223.68C305.71,-235.3 350.96,-250.97 386.23,-235.63 417.63,-221.96 442.8,-190.68 457.75,-168.16"/>
<polygon fill="black" stroke="black" points="460.65,-170.12 463.07,-159.81 454.75,-166.36 460.65,-170.12"/>
<text text-anchor="middle" x="363.6" y="-244.08" font-family="Times New Roman,serif" font-size="14.00"> &#160;c &#160;</text>
</g>
<!-- 2&#45;&gt;2 -->
<g id="edge3" class="edge">
<title>2&#45;&gt;2</title>
<path fill="none" stroke="black" d="M250.47,-234.53C249.17,-244.96 252.29,-254.26 259.84,-254.26 264.43,-254.26 267.39,-250.81 268.71,-245.75"/>
<polygon fill="black" stroke="black" points="272.19,-246.19 269.14,-236.05 265.2,-245.88 272.19,-246.19"/>
<text text-anchor="middle" x="259.84" y="-256.71" font-family="Times New Roman,serif" font-size="14.00"> &#160;a &#160;</text>
</g>
<!-- 2&#45;&gt;4 -->
<g id="edge11" class="edge">
<title>2&#45;&gt;4</title>
<path fill="none" stroke="black" d="M282.53,-210.97C294.79,-208.93 310.18,-205.44 322.97,-199.63 327.63,-197.51 332.29,-194.78 336.69,-191.86"/>
<polygon fill="black" stroke="black" points="338.52,-194.85 344.58,-186.16 334.43,-189.18 338.52,-194.85"/>
<text text-anchor="middle" x="311.72" y="-210.08" font-family="Times New Roman,serif" font-size="14.00"> &#160;b &#160;</text>
</g>
<!-- 3&#45;&gt;1 -->
<g id="edge5" class="edge">
<title>3&#45;&gt;1</title>
<path fill="none" stroke="black" d="M282.33,-95.9C320.73,-105.32 401.1,-125.03 444.16,-135.59"/>
<polygon fill="black" stroke="black" points="443.23,-138.97 453.78,-137.95 444.9,-132.17 443.23,-138.97"/>
<text text-anchor="middle" x="363.6" y="-124.08" font-family="Times New Roman,serif" font-size="14.00"> &#160;b,c &#160;</text>
</g>
<!-- 5 -->
<g id="node8" class="node">
<title>5</title>
<ellipse fill="none" stroke="black" cx="363.6" cy="-22.63" rx="18.63" ry="18.63"/>
<ellipse fill="none" stroke="black" cx="363.6" cy="-22.63" rx="22.63" ry="22.63"/>
<text text-anchor="start" x="357.6" y="-18.2" font-family="Times New Roman,serif" font-size="14.00">q</text>
<text text-anchor="start" x="365.1" y="-18.2" font-family="Times New Roman,serif" baseline-shift="sub" font-size="11.00">5</text>
</g>
<!-- 3&#45;&gt;5 -->
<g id="edge4" class="edge">
<title>3&#45;&gt;5</title>
<path fill="none" stroke="black" d="M279.03,-78.47C294.56,-68.09 317.14,-53.01 334.91,-41.13"/>
<polygon fill="black" stroke="black" points="336.59,-44.22 342.96,-35.75 332.7,-38.4 336.59,-44.22"/>
<text text-anchor="middle" x="311.72" y="-66.08" font-family="Times New Roman,serif" font-size="14.00"> &#160;a &#160;</text>
</g>
<!-- 4&#45;&gt;1 -->
<g id="edge8" class="edge">
<title>4&#45;&gt;1</title>
<path fill="none" stroke="black" d="M385.98,-165.1C402.74,-160.76 426.21,-154.69 444.53,-149.95"/>
<polygon fill="black" stroke="black" points="445.17,-153.41 453.97,-147.51 443.41,-146.63 445.17,-153.41"/>
<text text-anchor="middle" x="420.73" y="-163.08" font-family="Times New Roman,serif" font-size="14.00"> &#160;c &#160;</text>
</g>
<!-- 4&#45;&gt;2 -->
<g id="edge9" class="edge">
<title>4&#45;&gt;2</title>
<path fill="none" stroke="black" d="M340.59,-172.96C328.36,-174.82 313.12,-178.12 300.47,-183.88 295.54,-186.12 290.64,-189.06 286.05,-192.22"/>
<polygon fill="black" stroke="black" points="284.3,-189.16 278.37,-197.94 288.48,-194.77 284.3,-189.16"/>
<text text-anchor="middle" x="311.72" y="-187.08" font-family="Times New Roman,serif" font-size="14.00"> &#160;a &#160;</text>
</g>
<!-- 4&#45;&gt;4 -->
<g id="edge14" class="edge">
<title>4&#45;&gt;4</title>
<path fill="none" stroke="black" d="M354.16,-191.53C352.85,-201.96 356,-211.26 363.6,-211.26 368.23,-211.26 371.2,-207.81 372.53,-202.75"/>
<polygon fill="black" stroke="black" points="376.01,-203.19 372.97,-193.05 369.02,-202.88 376.01,-203.19"/>
<text text-anchor="middle" x="363.6" y="-213.71" font-family="Times New Roman,serif" font-size="14.00"> &#160;b &#160;</text>
</g>
<!-- 5&#45;&gt;1 -->
<g id="edge10" class="edge">
<title>5&#45;&gt;1</title>
<path fill="none" stroke="black" d="M382.69,-35.6C398.29,-47.35 420.82,-65.7 437.23,-84.88 445.38,-94.41 452.92,-106.01 458.94,-116.3"/>
<polygon fill="black" stroke="black" points="455.72,-117.72 463.68,-124.72 461.82,-114.29 455.72,-117.72"/>
<text text-anchor="middle" x="420.73" y="-88.08" font-family="Times New Roman,serif" font-size="14.00"> &#160;b,c &#160;</text>
</g>
<!-- 5&#45;&gt;5 -->
<g id="edge13" class="edge">
<title>5&#45;&gt;5</title>
<path fill="none" stroke="black" d="M354.16,-43.53C352.85,-53.96 356,-63.26 363.6,-63.26 368.23,-63.26 371.2,-59.81 372.53,-54.75"/>
<polygon fill="black" stroke="black" points="376.01,-55.19 372.97,-45.05 369.02,-54.88 376.01,-55.19"/>
<text text-anchor="middle" x="363.6" y="-65.71" font-family="Times New Roman,serif" font-size="14.00"> &#160;a &#160;</text>
</g>
</g>
</svg>
