<?xml version="1.0" encoding="UTF-8" standalone="no"?>
<!DOCTYPE svg PUBLIC "-//W3C//DTD SVG 1.1//EN"
 "http://www.w3.org/Graphics/SVG/1.1/DTD/svg11.dtd">
<!-- Generated by graphviz version 9.0.0 (20230911.1827)
 -->
<!-- Title: nfa Pages: 1 -->
<svg width="410pt" height="240pt"
 viewBox="0.00 0.00 409.97 239.98" xmlns="http://www.w3.org/2000/svg" xmlns:xlink="http://www.w3.org/1999/xlink">
<g id="graph0" class="graph" transform="scale(1 1) rotate(0) translate(4 235.98)">
<title>nfa</title>
<polygon fill="white" stroke="none" points="-4,4 -4,-235.98 405.97,-235.98 405.97,4 -4,4"/>
<!-- regex -->
<g id="node1" class="node">
<title>regex</title>
<path fill="none" stroke="black" d="M85.2,-97.2C85.2,-97.2 12,-97.2 12,-97.2 6,-97.2 0,-91.2 0,-85.2 0,-85.2 0,-12 0,-12 0,-6 6,0 12,0 12,0 85.2,0 85.2,0 91.2,0 97.2,-6 97.2,-12 97.2,-12 97.2,-85.2 97.2,-85.2 97.2,-91.2 91.2,-97.2 85.2,-97.2"/>
<text text-anchor="start" x="3.6" y="-39.3" font-family="Times New Roman,serif" font-size="24.00">(a|b)*|ca*</text>
</g>
<!-- * -->
<!-- 0 -->
<g id="node3" class="node">
<title>0</title>
<ellipse fill="none" stroke="black" cx="156.83" cy="-126.6" rx="18.63" ry="18.63"/>
<ellipse fill="none" stroke="black" cx="156.83" cy="-126.6" rx="22.63" ry="22.63"/>
<text text-anchor="start" x="150.83" y="-122.17" font-family="Times New Roman,serif" font-size="14.00">q</text>
<text text-anchor="start" x="158.33" y="-122.17" font-family="Times New Roman,serif" baseline-shift="sub" font-size="11.00">0</text>
</g>
<!-- *&#45;&gt;0 -->
<g id="edge8" class="edge">
<title>*&#45;&gt;0</title>
<path fill="none" stroke="black" d="M53.63,-126.6C64.82,-126.6 97.09,-126.6 122.41,-126.6"/>
<polygon fill="black" stroke="black" points="122.28,-130.1 132.28,-126.6 122.28,-123.1 122.28,-130.1"/>
</g>
<!-- 2 -->
<g id="node5" class="node">
<title>2</title>
<ellipse fill="none" stroke="black" cx="270.34" cy="-175.6" rx="18.63" ry="18.63"/>
<ellipse fill="none" stroke="black" cx="270.34" cy="-175.6" rx="22.63" ry="22.63"/>
<text text-anchor="start" x="264.34" y="-171.17" font-family="Times New Roman,serif" font-size="14.00">q</text>
<text text-anchor="start" x="271.84" y="-171.17" font-family="Times New Roman,serif" baseline-shift="sub" font-size="11.00">2</text>
</g>
<!-- 0&#45;&gt;2 -->
<g id="edge5" class="edge">
<title>0&#45;&gt;2</title>
<path fill="none" stroke="black" d="M178.02,-135.47C194.99,-142.93 219.51,-153.71 238.87,-162.21"/>
<polygon fill="black" stroke="black" points="237.35,-165.36 247.91,-166.18 240.16,-158.96 237.35,-165.36"/>
<text text-anchor="middle" x="213.58" y="-159.05" font-family="Times New Roman,serif" font-size="14.00"> &#160;a,b &#160;</text>
</g>
<!-- 3 -->
<g id="node6" class="node">
<title>3</title>
<ellipse fill="none" stroke="black" cx="270.34" cy="-78.6" rx="18.63" ry="18.63"/>
<ellipse fill="none" stroke="black" cx="270.34" cy="-78.6" rx="22.63" ry="22.63"/>
<text text-anchor="start" x="264.34" y="-74.17" font-family="Times New Roman,serif" font-size="14.00">q</text>
<text text-anchor="start" x="271.84" y="-74.17" font-family="Times New Roman,serif" baseline-shift="sub" font-size="11.00">3</text>
</g>
<!-- 0&#45;&gt;3 -->
<g id="edge4" class="edge">
<title>0&#45;&gt;3</title>
<path fill="none" stroke="black" d="M178.02,-117.91C194.99,-110.6 219.51,-100.05 238.87,-91.71"/>
<polygon fill="black" stroke="black" points="240.1,-94.99 247.9,-87.83 237.34,-88.57 240.1,-94.99"/>
<text text-anchor="middle" x="213.58" y="-111.05" font-family="Times New Roman,serif" font-size="14.00"> &#160;c &#160;</text>
</g>
<!-- 1 -->
<g id="node4" class="node">
<title>1</title>
<ellipse fill="none" stroke="black" cx="380.6" cy="-126.6" rx="18.63" ry="18.63"/>
<text text-anchor="start" x="374.6" y="-122.17" font-family="Times New Roman,serif" font-size="14.00">q</text>
<text text-anchor="start" x="382.1" y="-122.17" font-family="Times New Roman,serif" baseline-shift="sub" font-size="11.00">1</text>
</g>
<!-- 1&#45;&gt;1 -->
<g id="edge2" class="edge">
<title>1&#45;&gt;1</title>
<path fill="none" stroke="black" d="M371.34,-143.17C369.1,-153.45 372.19,-163.23 380.6,-163.23 385.72,-163.23 388.86,-159.6 390.04,-154.44"/>
<polygon fill="black" stroke="black" points="393.54,-154.63 389.88,-144.69 386.54,-154.74 393.54,-154.63"/>
<text text-anchor="middle" x="380.6" y="-165.68" font-family="Times New Roman,serif" font-size="14.00"> &#160;a,b,c &#160;</text>
</g>
<!-- 2&#45;&gt;1 -->
<g id="edge3" class="edge">
<title>2&#45;&gt;1</title>
<path fill="none" stroke="black" d="M291.45,-166.5C308.72,-158.68 333.78,-147.34 352.76,-138.75"/>
<polygon fill="black" stroke="black" points="354.09,-141.99 361.76,-134.67 351.2,-135.61 354.09,-141.99"/>
<text text-anchor="middle" x="327.47" y="-159.05" font-family="Times New Roman,serif" font-size="14.00"> &#160;c &#160;</text>
</g>
<!-- 2&#45;&gt;2 -->
<g id="edge1" class="edge">
<title>2&#45;&gt;2</title>
<path fill="none" stroke="black" d="M260.07,-196.09C258.49,-206.68 261.91,-216.23 270.34,-216.23 275.47,-216.23 278.75,-212.68 280.17,-207.52"/>
<polygon fill="black" stroke="black" points="283.66,-207.73 280.55,-197.6 276.67,-207.46 283.66,-207.73"/>
<text text-anchor="middle" x="270.34" y="-218.68" font-family="Times New Roman,serif" font-size="14.00"> &#160;a,b &#160;</text>
</g>
<!-- 3&#45;&gt;1 -->
<g id="edge7" class="edge">
<title>3&#45;&gt;1</title>
<path fill="none" stroke="black" d="M291.45,-87.52C308.72,-95.18 333.78,-106.28 352.76,-114.7"/>
<polygon fill="black" stroke="black" points="351.19,-117.83 361.75,-118.69 354.03,-111.43 351.19,-117.83"/>
<text text-anchor="middle" x="327.47" y="-113.05" font-family="Times New Roman,serif" font-size="14.00"> &#160;b,c &#160;</text>
</g>
<!-- 3&#45;&gt;3 -->
<g id="edge6" class="edge">
<title>3&#45;&gt;3</title>
<path fill="none" stroke="black" d="M260.07,-99.09C258.49,-109.68 261.91,-119.23 270.34,-119.23 275.47,-119.23 278.75,-115.68 280.17,-110.52"/>
<polygon fill="black" stroke="black" points="283.66,-110.73 280.55,-100.6 276.67,-110.46 283.66,-110.73"/>
<text text-anchor="middle" x="270.34" y="-121.68" font-family="Times New Roman,serif" font-size="14.00"> &#160;a &#160;</text>
</g>
</g>
</svg>
