<?xml version="1.0" encoding="UTF-8" standalone="no"?>
<!DOCTYPE svg PUBLIC "-//W3C//DTD SVG 1.1//EN"
 "http://www.w3.org/Graphics/SVG/1.1/DTD/svg11.dtd">
<!-- Generated by graphviz version 9.0.0 (20230911.1827)
 -->
<!-- Title: nfa Pages: 1 -->
<svg width="873pt" height="299pt"
 viewBox="0.00 0.00 873.47 299.37" xmlns="http://www.w3.org/2000/svg" xmlns:xlink="http://www.w3.org/1999/xlink">
<g id="graph0" class="graph" transform="scale(1 1) rotate(0) translate(4 295.37)">
<title>nfa</title>
<polygon fill="white" stroke="none" points="-4,4 -4,-295.37 869.47,-295.37 869.47,4 -4,4"/>
<!-- regex -->
<g id="node1" class="node">
<title>regex</title>
<path fill="none" stroke="black" d="M85.2,-166.22C85.2,-166.22 12,-166.22 12,-166.22 6,-166.22 0,-160.22 0,-154.22 0,-154.22 0,-81.02 0,-81.02 0,-75.02 6,-69.02 12,-69.02 12,-69.02 85.2,-69.02 85.2,-69.02 91.2,-69.02 97.2,-75.02 97.2,-81.02 97.2,-81.02 97.2,-154.22 97.2,-154.22 97.2,-160.22 91.2,-166.22 85.2,-166.22"/>
<text text-anchor="start" x="3.6" y="-108.32" font-family="Times New Roman,serif" font-size="24.00">(a|b)*|ca*</text>
</g>
<!-- * -->
<!-- 0 -->
<g id="node3" class="node">
<title>0</title>
<ellipse fill="none" stroke="black" cx="152.83" cy="-195.62" rx="18.63" ry="18.63"/>
<text text-anchor="start" x="146.83" y="-191.2" font-family="Times New Roman,serif" font-size="14.00">q</text>
<text text-anchor="start" x="154.33" y="-191.2" font-family="Times New Roman,serif" baseline-shift="sub" font-size="11.00">0</text>
</g>
<!-- *&#45;&gt;0 -->
<g id="edge22" class="edge">
<title>*&#45;&gt;0</title>
<path fill="none" stroke="black" d="M53.48,-195.62C64.7,-195.62 97.95,-195.62 122.7,-195.62"/>
<polygon fill="black" stroke="black" points="122.52,-199.12 132.52,-195.62 122.52,-192.12 122.52,-199.12"/>
</g>
<!-- 4 -->
<g id="node7" class="node">
<title>4</title>
<ellipse fill="none" stroke="black" cx="247.09" cy="-223.62" rx="18.63" ry="18.63"/>
<text text-anchor="start" x="241.09" y="-219.2" font-family="Times New Roman,serif" font-size="14.00">q</text>
<text text-anchor="start" x="248.59" y="-219.2" font-family="Times New Roman,serif" baseline-shift="sub" font-size="11.00">4</text>
</g>
<!-- 0&#45;&gt;4 -->
<g id="edge7" class="edge">
<title>0&#45;&gt;4</title>
<path fill="none" stroke="black" d="M171.18,-200.89C184.33,-204.88 202.66,-210.44 217.9,-215.07"/>
<polygon fill="black" stroke="black" points="216.78,-218.39 227.36,-217.94 218.81,-211.69 216.78,-218.39"/>
<text text-anchor="middle" x="199.96" y="-215.07" font-family="Times New Roman,serif" font-size="14.00"> &#160;ε &#160;</text>
</g>
<!-- 8 -->
<g id="node11" class="node">
<title>8</title>
<ellipse fill="none" stroke="black" cx="247.09" cy="-168.62" rx="18.63" ry="18.63"/>
<text text-anchor="start" x="241.09" y="-164.2" font-family="Times New Roman,serif" font-size="14.00">q</text>
<text text-anchor="start" x="248.59" y="-164.2" font-family="Times New Roman,serif" baseline-shift="sub" font-size="11.00">8</text>
</g>
<!-- 0&#45;&gt;8 -->
<g id="edge12" class="edge">
<title>0&#45;&gt;8</title>
<path fill="none" stroke="black" d="M170.34,-188.7C176.3,-186.35 183.12,-183.83 189.46,-181.87 198.38,-179.12 208.25,-176.63 217.21,-174.57"/>
<polygon fill="black" stroke="black" points="217.83,-178.02 226.84,-172.45 216.32,-171.18 217.83,-178.02"/>
<text text-anchor="middle" x="199.96" y="-185.07" font-family="Times New Roman,serif" font-size="14.00"> &#160;ε &#160;</text>
</g>
<!-- 1 -->
<g id="node4" class="node">
<title>1</title>
<ellipse fill="none" stroke="black" cx="544.09" cy="-84.62" rx="18.63" ry="18.63"/>
<text text-anchor="start" x="538.09" y="-80.2" font-family="Times New Roman,serif" font-size="14.00">q</text>
<text text-anchor="start" x="545.59" y="-80.2" font-family="Times New Roman,serif" baseline-shift="sub" font-size="11.00">1</text>
</g>
<!-- 3 -->
<g id="node6" class="node">
<title>3</title>
<ellipse fill="none" stroke="black" cx="638.35" cy="-113.62" rx="18.63" ry="18.63"/>
<text text-anchor="start" x="632.35" y="-109.2" font-family="Times New Roman,serif" font-size="14.00">q</text>
<text text-anchor="start" x="639.85" y="-109.2" font-family="Times New Roman,serif" baseline-shift="sub" font-size="11.00">3</text>
</g>
<!-- 1&#45;&gt;3 -->
<g id="edge5" class="edge">
<title>1&#45;&gt;3</title>
<path fill="none" stroke="black" d="M562.01,-89.94C575.32,-94.13 594.15,-100.04 609.65,-104.92"/>
<polygon fill="black" stroke="black" points="608.19,-108.13 618.78,-107.79 610.29,-101.45 608.19,-108.13"/>
<text text-anchor="middle" x="591.22" y="-105.07" font-family="Times New Roman,serif" font-size="14.00"> &#160;ε &#160;</text>
</g>
<!-- 2 -->
<g id="node5" class="node">
<title>2</title>
<ellipse fill="none" stroke="black" cx="544.09" cy="-28.62" rx="18.63" ry="18.63"/>
<text text-anchor="start" x="538.09" y="-24.2" font-family="Times New Roman,serif" font-size="14.00">q</text>
<text text-anchor="start" x="545.59" y="-24.2" font-family="Times New Roman,serif" baseline-shift="sub" font-size="11.00">2</text>
</g>
<!-- 2&#45;&gt;3 -->
<g id="edge13" class="edge">
<title>2&#45;&gt;3</title>
<path fill="none" stroke="black" d="M558.91,-39.77C570.57,-49.33 587.59,-63.62 601.72,-76.87 606.87,-81.7 612.25,-87.07 617.23,-92.18"/>
<polygon fill="black" stroke="black" points="614.61,-94.51 624.06,-99.31 619.66,-89.67 614.61,-94.51"/>
<text text-anchor="middle" x="591.22" y="-80.07" font-family="Times New Roman,serif" font-size="14.00"> &#160;ε &#160;</text>
</g>
<!-- 9 -->
<g id="node12" class="node">
<title>9</title>
<ellipse fill="none" stroke="black" cx="735.6" cy="-166.62" rx="18.63" ry="18.63"/>
<text text-anchor="start" x="729.6" y="-162.2" font-family="Times New Roman,serif" font-size="14.00">q</text>
<text text-anchor="start" x="737.1" y="-162.2" font-family="Times New Roman,serif" baseline-shift="sub" font-size="11.00">9</text>
</g>
<!-- 3&#45;&gt;9 -->
<g id="edge18" class="edge">
<title>3&#45;&gt;9</title>
<path fill="none" stroke="black" d="M655.45,-121.09C666.92,-126.54 682.6,-134.28 695.98,-141.87 700.62,-144.51 705.48,-147.46 710.13,-150.39"/>
<polygon fill="black" stroke="black" points="708.21,-153.32 718.52,-155.79 712,-147.43 708.21,-153.32"/>
<text text-anchor="middle" x="685.48" y="-145.07" font-family="Times New Roman,serif" font-size="14.00"> &#160;ε &#160;</text>
</g>
<!-- 10 -->
<g id="node13" class="node">
<title>10</title>
<ellipse fill="none" stroke="black" cx="345.09" cy="-107.62" rx="21.62" ry="21.62"/>
<text text-anchor="start" x="336.84" y="-103.2" font-family="Times New Roman,serif" font-size="14.00">q</text>
<text text-anchor="start" x="344.34" y="-103.2" font-family="Times New Roman,serif" baseline-shift="sub" font-size="11.00">10</text>
</g>
<!-- 3&#45;&gt;10 -->
<g id="edge1" class="edge">
<title>3&#45;&gt;10</title>
<path fill="none" stroke="black" d="M619.64,-116.6C613.93,-117.43 607.57,-118.21 601.72,-118.62 592.41,-119.27 590.05,-118.65 580.72,-118.62 493.6,-118.4 471.1,-128.85 384.71,-117.62 382.2,-117.3 379.62,-116.86 377.04,-116.35"/>
<polygon fill="black" stroke="black" points="377.96,-112.97 367.42,-114.11 376.37,-119.79 377.96,-112.97"/>
<text text-anchor="middle" x="496.21" y="-125.07" font-family="Times New Roman,serif" font-size="14.00"> &#160;ε &#160;</text>
</g>
<!-- 5 -->
<g id="node8" class="node">
<title>5</title>
<ellipse fill="none" stroke="black" cx="345.09" cy="-223.62" rx="18.63" ry="18.63"/>
<text text-anchor="start" x="339.09" y="-219.2" font-family="Times New Roman,serif" font-size="14.00">q</text>
<text text-anchor="start" x="346.59" y="-219.2" font-family="Times New Roman,serif" baseline-shift="sub" font-size="11.00">5</text>
</g>
<!-- 4&#45;&gt;5 -->
<g id="edge9" class="edge">
<title>4&#45;&gt;5</title>
<path fill="none" stroke="black" d="M266.14,-223.62C279.82,-223.62 298.9,-223.62 314.76,-223.62"/>
<polygon fill="black" stroke="black" points="314.6,-227.12 324.6,-223.62 314.6,-220.12 314.6,-227.12"/>
<text text-anchor="middle" x="294.59" y="-226.07" font-family="Times New Roman,serif" font-size="14.00"> &#160;c &#160;</text>
</g>
<!-- 12 -->
<g id="node15" class="node">
<title>12</title>
<ellipse fill="none" stroke="black" cx="445.34" cy="-223.62" rx="21.62" ry="21.62"/>
<text text-anchor="start" x="437.09" y="-219.2" font-family="Times New Roman,serif" font-size="14.00">q</text>
<text text-anchor="start" x="444.59" y="-219.2" font-family="Times New Roman,serif" baseline-shift="sub" font-size="11.00">12</text>
</g>
<!-- 5&#45;&gt;12 -->
<g id="edge20" class="edge">
<title>5&#45;&gt;12</title>
<path fill="none" stroke="black" d="M364.11,-223.62C377.44,-223.62 395.96,-223.62 411.85,-223.62"/>
<polygon fill="black" stroke="black" points="411.85,-227.12 421.85,-223.62 411.85,-220.12 411.85,-227.12"/>
<text text-anchor="middle" x="395.21" y="-226.07" font-family="Times New Roman,serif" font-size="14.00"> &#160;ε &#160;</text>
</g>
<!-- 6 -->
<g id="node9" class="node">
<title>6</title>
<ellipse fill="none" stroke="black" cx="544.09" cy="-261.62" rx="18.63" ry="18.63"/>
<text text-anchor="start" x="538.09" y="-257.2" font-family="Times New Roman,serif" font-size="14.00">q</text>
<text text-anchor="start" x="545.59" y="-257.2" font-family="Times New Roman,serif" baseline-shift="sub" font-size="11.00">6</text>
</g>
<!-- 7 -->
<g id="node10" class="node">
<title>7</title>
<ellipse fill="none" stroke="black" cx="638.35" cy="-261.62" rx="18.63" ry="18.63"/>
<text text-anchor="start" x="632.35" y="-257.2" font-family="Times New Roman,serif" font-size="14.00">q</text>
<text text-anchor="start" x="639.85" y="-257.2" font-family="Times New Roman,serif" baseline-shift="sub" font-size="11.00">7</text>
</g>
<!-- 6&#45;&gt;7 -->
<g id="edge17" class="edge">
<title>6&#45;&gt;7</title>
<path fill="none" stroke="black" d="M561.43,-268.95C567.38,-271.24 574.23,-273.48 580.72,-274.62 589.91,-276.25 592.53,-276.25 601.72,-274.62 604.55,-274.12 607.46,-273.41 610.33,-272.58"/>
<polygon fill="black" stroke="black" points="611.23,-275.97 619.57,-269.43 608.98,-269.34 611.23,-275.97"/>
<text text-anchor="middle" x="591.22" y="-278.07" font-family="Times New Roman,serif" font-size="14.00"> &#160;a &#160;</text>
</g>
<!-- 7&#45;&gt;6 -->
<g id="edge6" class="edge">
<title>7&#45;&gt;6</title>
<path fill="none" stroke="black" d="M619.6,-259.98C613.9,-259.53 607.55,-259.1 601.72,-258.87 592.39,-258.51 590.04,-258.51 580.72,-258.87 578.62,-258.95 576.46,-259.06 574.29,-259.19"/>
<polygon fill="black" stroke="black" points="574.08,-255.69 564.34,-259.88 574.56,-262.68 574.08,-255.69"/>
<text text-anchor="middle" x="591.22" y="-262.07" font-family="Times New Roman,serif" font-size="14.00"> &#160;ε &#160;</text>
</g>
<!-- 13 -->
<g id="node16" class="node">
<title>13</title>
<ellipse fill="none" stroke="black" cx="735.6" cy="-224.62" rx="21.62" ry="21.62"/>
<text text-anchor="start" x="727.35" y="-220.2" font-family="Times New Roman,serif" font-size="14.00">q</text>
<text text-anchor="start" x="734.85" y="-220.2" font-family="Times New Roman,serif" baseline-shift="sub" font-size="11.00">13</text>
</g>
<!-- 7&#45;&gt;13 -->
<g id="edge14" class="edge">
<title>7&#45;&gt;13</title>
<path fill="none" stroke="black" d="M655.94,-255.18C669.28,-250 688.37,-242.58 704.4,-236.35"/>
<polygon fill="black" stroke="black" points="705.44,-239.7 713.5,-232.82 702.91,-233.18 705.44,-239.7"/>
<text text-anchor="middle" x="685.48" y="-250.07" font-family="Times New Roman,serif" font-size="14.00"> &#160;ε &#160;</text>
</g>
<!-- 8&#45;&gt;9 -->
<g id="edge4" class="edge">
<title>8&#45;&gt;9</title>
<path fill="none" stroke="black" d="M266.13,-169.52C285.42,-170.41 316.91,-171.62 344.09,-171.62 344.09,-171.62 344.09,-171.62 639.35,-171.62 661.49,-171.62 686.49,-170.26 705.32,-168.96"/>
<polygon fill="black" stroke="black" points="705.48,-172.45 715.2,-168.23 704.97,-165.47 705.48,-172.45"/>
<text text-anchor="middle" x="496.21" y="-174.07" font-family="Times New Roman,serif" font-size="14.00"> &#160;ε &#160;</text>
</g>
<!-- 8&#45;&gt;10 -->
<g id="edge8" class="edge">
<title>8&#45;&gt;10</title>
<path fill="none" stroke="black" d="M262.35,-157.26C268.74,-152.33 276.47,-146.62 283.72,-141.87 293.82,-135.26 305.26,-128.57 315.44,-122.89"/>
<polygon fill="black" stroke="black" points="317.09,-125.98 324.17,-118.1 313.72,-119.84 317.09,-125.98"/>
<text text-anchor="middle" x="294.59" y="-145.07" font-family="Times New Roman,serif" font-size="14.00"> &#160;ε &#160;</text>
</g>
<!-- 15 -->
<g id="node18" class="node">
<title>15</title>
<ellipse fill="none" stroke="black" cx="839.85" cy="-194.62" rx="21.62" ry="21.62"/>
<ellipse fill="none" stroke="black" cx="839.85" cy="-194.62" rx="25.62" ry="25.62"/>
<text text-anchor="start" x="831.6" y="-190.2" font-family="Times New Roman,serif" font-size="14.00">q</text>
<text text-anchor="start" x="839.1" y="-190.2" font-family="Times New Roman,serif" baseline-shift="sub" font-size="11.00">15</text>
</g>
<!-- 9&#45;&gt;15 -->
<g id="edge21" class="edge">
<title>9&#45;&gt;15</title>
<path fill="none" stroke="black" d="M754.13,-170.91C766.03,-173.87 782.12,-177.96 796.22,-181.87 798.8,-182.59 801.45,-183.34 804.12,-184.11"/>
<polygon fill="black" stroke="black" points="802.97,-187.42 813.55,-186.88 804.94,-180.7 802.97,-187.42"/>
<text text-anchor="middle" x="785.72" y="-185.07" font-family="Times New Roman,serif" font-size="14.00"> &#160;ε &#160;</text>
</g>
<!-- 11 -->
<g id="node14" class="node">
<title>11</title>
<ellipse fill="none" stroke="black" cx="445.34" cy="-82.62" rx="21.62" ry="21.62"/>
<text text-anchor="start" x="437.09" y="-78.2" font-family="Times New Roman,serif" font-size="14.00">q</text>
<text text-anchor="start" x="444.59" y="-78.2" font-family="Times New Roman,serif" baseline-shift="sub" font-size="11.00">11</text>
</g>
<!-- 10&#45;&gt;11 -->
<g id="edge15" class="edge">
<title>10&#45;&gt;11</title>
<path fill="none" stroke="black" d="M366.45,-102.44C379.88,-99.02 397.75,-94.48 412.99,-90.6"/>
<polygon fill="black" stroke="black" points="413.71,-94.03 422.54,-88.17 411.98,-87.24 413.71,-94.03"/>
<text text-anchor="middle" x="395.21" y="-100.07" font-family="Times New Roman,serif" font-size="14.00"> &#160;ε &#160;</text>
</g>
<!-- 14 -->
<g id="node17" class="node">
<title>14</title>
<ellipse fill="none" stroke="black" cx="445.34" cy="-21.62" rx="21.62" ry="21.62"/>
<text text-anchor="start" x="437.09" y="-17.2" font-family="Times New Roman,serif" font-size="14.00">q</text>
<text text-anchor="start" x="444.59" y="-17.2" font-family="Times New Roman,serif" baseline-shift="sub" font-size="11.00">14</text>
</g>
<!-- 10&#45;&gt;14 -->
<g id="edge11" class="edge">
<title>10&#45;&gt;14</title>
<path fill="none" stroke="black" d="M361.87,-93.81C377.54,-80.1 401.76,-58.89 419.91,-43.01"/>
<polygon fill="black" stroke="black" points="421.91,-45.91 427.13,-36.69 417.3,-40.64 421.91,-45.91"/>
<text text-anchor="middle" x="395.21" y="-75.07" font-family="Times New Roman,serif" font-size="14.00"> &#160;ε &#160;</text>
</g>
<!-- 11&#45;&gt;1 -->
<g id="edge10" class="edge">
<title>11&#45;&gt;1</title>
<path fill="none" stroke="black" d="M467.33,-83.06C480.92,-83.34 498.82,-83.71 513.81,-84.02"/>
<polygon fill="black" stroke="black" points="513.48,-87.51 523.55,-84.22 513.62,-80.51 513.48,-87.51"/>
<text text-anchor="middle" x="496.21" y="-87.07" font-family="Times New Roman,serif" font-size="14.00"> &#160;a &#160;</text>
</g>
<!-- 12&#45;&gt;6 -->
<g id="edge19" class="edge">
<title>12&#45;&gt;6</title>
<path fill="none" stroke="black" d="M465.92,-231.31C480.36,-236.99 500.19,-244.78 516.14,-251.04"/>
<polygon fill="black" stroke="black" points="514.44,-254.13 525.03,-254.53 517,-247.62 514.44,-254.13"/>
<text text-anchor="middle" x="496.21" y="-250.07" font-family="Times New Roman,serif" font-size="14.00"> &#160;ε &#160;</text>
</g>
<!-- 12&#45;&gt;13 -->
<g id="edge3" class="edge">
<title>12&#45;&gt;13</title>
<path fill="none" stroke="black" d="M467.07,-223.7C516.71,-223.87 642.67,-224.3 702.33,-224.51"/>
<polygon fill="black" stroke="black" points="702.14,-228.01 712.15,-224.55 702.17,-221.01 702.14,-228.01"/>
<text text-anchor="middle" x="591.22" y="-227.07" font-family="Times New Roman,serif" font-size="14.00"> &#160;ε &#160;</text>
</g>
<!-- 13&#45;&gt;15 -->
<g id="edge16" class="edge">
<title>13&#45;&gt;15</title>
<path fill="none" stroke="black" d="M756.8,-218.7C770.19,-214.77 788.12,-209.51 803.81,-204.9"/>
<polygon fill="black" stroke="black" points="804.67,-208.3 813.28,-202.13 802.7,-201.58 804.67,-208.3"/>
<text text-anchor="middle" x="785.72" y="-216.07" font-family="Times New Roman,serif" font-size="14.00"> &#160;ε &#160;</text>
</g>
<!-- 14&#45;&gt;2 -->
<g id="edge2" class="edge">
<title>14&#45;&gt;2</title>
<path fill="none" stroke="black" d="M467.33,-23.14C480.92,-24.13 498.82,-25.42 513.81,-26.5"/>
<polygon fill="black" stroke="black" points="513.33,-29.98 523.55,-27.21 513.83,-23 513.33,-29.98"/>
<text text-anchor="middle" x="496.21" y="-29.07" font-family="Times New Roman,serif" font-size="14.00"> &#160;b &#160;</text>
</g>
</g>
</svg>
